# xmcd CD database file
#
# Track frame offsets:
#	150
#	18375
#	37150
#	51075
#	78827
#	100875
#	104905
#	117825
#	129950
#	153275
#	173150
#	189725
#
# Disc length: 2732 seconds
#
# Revision: 2
# Processed by: cddbd v1.4b41PL1 Copyright (c) Steve Scherf et al.
# Submitted via: Feurio! 1.51.15ß - http://www.feurio.com
#
DISCID=9a0aaa0c
DTITLE=BavaRio - Maschkara
DYEAR=1900
DGENRE=
TTITLE0=Heigeing
TTITLE1=Ja-Ja 
TTITLE2=Schwammal Landler
TTITLE3=Windeulen
TTITLE4=Mäuse
TTITLE5=Pilgersheimer Flaschen Ruf
TTITLE6=Oimrausch
TTITLE7='s ghert so
TTITLE8=Maschkara
TTITLE9=Zeidlang
TTITLE10=Altweibersommer
TTITLE11=Hoamoeh
EXTD=
EXTT0=
EXTT1=
EXTT2=
EXTT3=
EXTT4=
EXTT5=
EXTT6=
EXTT7=
EXTT8=
EXTT9=
EXTT10=
EXTT11=
PLAYORDER=
